<?xml version="1.0" standalone="no"?>
<!DOCTYPE svg PUBLIC "-//W3C//DTD SVG 20010904//EN"
 "http://www.w3.org/TR/2001/REC-SVG-20010904/DTD/svg10.dtd">
<svg version="1.0" xmlns="http://www.w3.org/2000/svg"
 width="588.000000pt" height="588.000000pt" viewBox="0 0 588.000000 588.000000"
 preserveAspectRatio="xMidYMid meet">
<metadata>
Created by potrace 1.14, written by Peter Selinger 2001-2017
</metadata>
<g transform="translate(0.000000,588.000000) scale(0.100000,-0.100000)"
fill="#000000" stroke="none">
<path d="M0 2940 l0 -2940 2940 0 2940 0 0 2940 0 2940 -2940 0 -2940 0 0
-2940z m4532 -56 c-23 -14 -40 -28 -38 -32 2 -4 -12 -8 -32 -9 l-37 -2 36 18
c20 10 47 25 60 34 13 10 30 17 39 17 8 0 -4 -12 -28 -26z m-422 -18 c0 -3 -4
-8 -10 -11 -5 -3 -10 -1 -10 4 0 6 5 11 10 11 6 0 10 -2 10 -4z m279 -50 c-8
-8 -232 -67 -241 -64 -11 4 198 66 226 67 11 1 17 -1 15 -3z m-286 -60 c4 -10
1 -13 -8 -9 -8 3 -12 9 -9 14 7 12 11 11 17 -5z m48 -24 c-7 -2 -18 1 -23 6
-8 8 -4 9 13 5 13 -4 18 -8 10 -11z m-56 -22 c-3 -5 -11 -10 -16 -10 -6 0 -7
5 -4 10 3 6 11 10 16 10 6 0 7 -4 4 -10z m55 -64 c0 -9 -101 -67 -111 -64 -6
2 15 18 47 36 63 34 64 34 64 28z m669 -137 c-39 -26 -45 -27 -46 -11 -1 13 7
18 29 19 22 0 27 -2 17 -8z m-324 -68 c-6 -6 -35 -12 -65 -15 l-55 -5 60 13
c33 7 62 14 65 15 2 0 0 -3 -5 -8z m137 -4 c-12 -7 -19 -17 -15 -21 4 -4 4 -7
-2 -6 -21 5 -36 0 -30 -10 4 -6 -1 -7 -11 -3 -12 4 -15 3 -10 -5 4 -7 2 -12
-4 -12 -6 0 -8 -5 -4 -12 4 -7 3 -8 -5 -4 -6 4 -8 12 -5 18 5 7 2 8 -5 4 -7
-5 -10 -14 -7 -22 3 -8 0 -11 -10 -7 -9 3 -14 0 -12 -8 2 -9 -4 -13 -16 -11
-13 2 -16 -1 -10 -10 6 -10 4 -10 -9 1 -16 12 -17 12 -11 -5 4 -10 4 -16 0
-12 -10 8 -44 -24 -38 -36 3 -5 0 -6 -7 -2 -6 4 -9 13 -5 19 3 7 -1 3 -10 -7
-8 -10 -13 -23 -9 -28 3 -6 -4 -5 -16 1 -18 10 -20 9 -14 -6 6 -16 5 -16 -10
-4 -15 12 -17 12 -11 -3 4 -11 1 -16 -11 -16 -10 0 -13 5 -9 12 4 7 3 8 -4 4
-6 -4 -8 -14 -5 -24 6 -15 5 -15 -10 -3 -15 12 -17 12 -12 -2 4 -8 1 -18 -6
-23 -7 -4 -10 -3 -6 3 3 5 0 10 -7 10 -9 0 -12 -7 -8 -16 3 -8 -13 0 -37 19
-23 19 -39 40 -37 47 3 7 2 12 -2 12 -19 -3 -32 2 -32 13 0 6 -12 27 -26 46
-33 42 -26 48 63 58 35 3 66 10 68 15 3 4 14 6 25 4 11 -2 22 0 25 6 4 5 12 9
18 9 16 -1 -23 -23 -47 -27 -11 -2 -25 -8 -31 -13 -7 -6 -20 -8 -29 -4 -12 5
-15 2 -10 -10 7 -19 1 -20 -29 -5 -19 9 -19 7 3 -11 34 -28 65 -45 56 -31 -10
15 7 14 23 -1 10 -11 11 -9 5 7 -6 16 -5 18 7 8 11 -9 32 -5 94 14 44 14 85
29 91 34 7 6 21 11 32 14 11 2 41 15 68 29 52 26 112 38 66 13z m-387 -97 c-3
-5 -10 -10 -16 -10 -5 0 -9 5 -9 10 0 6 7 10 16 10 8 0 12 -4 9 -10z m520 -95
c-156 -77 -197 -93 -228 -90 -24 2 -35 -1 -30 -7 3 -6 1 -8 -5 -4 -6 3 -13 2
-17 -4 -8 -12 -35 -13 -35 -1 0 11 59 33 71 25 5 -3 9 0 9 6 0 7 7 9 16 6 8
-3 12 -2 9 4 -3 6 0 11 7 11 7 1 23 3 36 4 12 1 31 10 42 20 11 10 26 15 35
11 9 -3 13 -2 10 4 -3 5 14 14 37 21 24 7 70 24 103 39 104 46 110 49 120 49
6 0 -75 -42 -180 -94z m-335 -115 c-8 -5 -19 -10 -25 -10 -5 0 -3 5 5 10 8 5
20 10 25 10 6 0 3 -5 -5 -10z m646 -5 c-11 -8 -25 -15 -30 -15 -6 1 0 7 14 15
32 19 40 18 16 0z m-80 -40 c-11 -8 -29 -15 -40 -15 -17 1 -15 4 9 15 40 18
55 18 31 0z"/>
</g>
</svg>
